<mxfile host="Electron" agent="Mozilla/5.0 (Windows NT 10.0; Win64; x64) AppleWebKit/537.36 (KHTML, like Gecko) draw.io/26.0.15 Chrome/132.0.6834.196 Electron/34.2.0 Safari/537.36" version="26.0.15">
  <diagram name="Page-1" id="A6A2Ey1I3Q6UVxe3n8Nk">
    <mxGraphModel dx="1434" dy="844" grid="1" gridSize="10" guides="1" tooltips="1" connect="1" arrows="1" fold="1" page="1" pageScale="1" pageWidth="850" pageHeight="1100" math="0" shadow="0">
      <root>
        <mxCell id="0" />
        <mxCell id="1" parent="0" />
        <mxCell id="MF8y315HFKCscMWPIq3S-3" value="" style="rounded=0;whiteSpace=wrap;html=1;fillColor=#dae8fc;strokeColor=#6c8ebf;" parent="1" vertex="1">
          <mxGeometry x="420" y="10" width="420" height="630" as="geometry" />
        </mxCell>
        <mxCell id="MF8y315HFKCscMWPIq3S-1" value="" style="rounded=0;whiteSpace=wrap;html=1;fillColor=#dae8fc;strokeColor=#6c8ebf;" parent="1" vertex="1">
          <mxGeometry x="20" y="10" width="370" height="630" as="geometry" />
        </mxCell>
        <mxCell id="i-i0ATKstZ07EqoSi6M--68" value="Start" style="rounded=1;whiteSpace=wrap;html=1;arcSize=50;" parent="1" vertex="1">
          <mxGeometry x="510" y="40" width="120" height="40" as="geometry" />
        </mxCell>
        <mxCell id="i-i0ATKstZ07EqoSi6M--71" value="" style="endArrow=classic;html=1;rounded=0;" parent="1" edge="1">
          <mxGeometry width="50" height="50" relative="1" as="geometry">
            <mxPoint x="569.71" y="80" as="sourcePoint" />
            <mxPoint x="569.8757142857144" y="120" as="targetPoint" />
          </mxGeometry>
        </mxCell>
        <mxCell id="LWxHSfThP7M6L4Hyh482-13" value="Start" style="rounded=1;whiteSpace=wrap;html=1;arcSize=50;" parent="1" vertex="1">
          <mxGeometry x="70" y="40" width="120" height="40" as="geometry" />
        </mxCell>
        <mxCell id="LWxHSfThP7M6L4Hyh482-14" value="Input the Token Name, Symbol, Metadata" style="shape=document;whiteSpace=wrap;html=1;boundedLbl=1;" parent="1" vertex="1">
          <mxGeometry x="45" y="120" width="170" height="60" as="geometry" />
        </mxCell>
        <mxCell id="LWxHSfThP7M6L4Hyh482-15" value="" style="endArrow=classic;html=1;rounded=0;" parent="1" target="LWxHSfThP7M6L4Hyh482-14" edge="1">
          <mxGeometry width="50" height="50" relative="1" as="geometry">
            <mxPoint x="129.70999999999998" y="80" as="sourcePoint" />
            <mxPoint x="130" y="100" as="targetPoint" />
          </mxGeometry>
        </mxCell>
        <mxCell id="LWxHSfThP7M6L4Hyh482-16" value="" style="endArrow=classic;html=1;rounded=0;" parent="1" edge="1">
          <mxGeometry width="50" height="50" relative="1" as="geometry">
            <mxPoint x="129.70999999999998" y="170" as="sourcePoint" />
            <mxPoint x="130" y="210" as="targetPoint" />
          </mxGeometry>
        </mxCell>
        <mxCell id="LWxHSfThP7M6L4Hyh482-17" value="Input the wallet private key for transaction fee" style="shape=document;whiteSpace=wrap;html=1;boundedLbl=1;" parent="1" vertex="1">
          <mxGeometry x="45" y="210" width="175" height="60" as="geometry" />
        </mxCell>
        <mxCell id="LWxHSfThP7M6L4Hyh482-18" value="" style="endArrow=classic;html=1;rounded=0;" parent="1" edge="1">
          <mxGeometry width="50" height="50" relative="1" as="geometry">
            <mxPoint x="129.70999999999998" y="262" as="sourcePoint" />
            <mxPoint x="130" y="302" as="targetPoint" />
          </mxGeometry>
        </mxCell>
        <mxCell id="LWxHSfThP7M6L4Hyh482-19" value="NFT Mint and Transfer to User address" style="rounded=0;whiteSpace=wrap;html=1;" parent="1" vertex="1">
          <mxGeometry x="40" y="390" width="180" height="50" as="geometry" />
        </mxCell>
        <mxCell id="LWxHSfThP7M6L4Hyh482-20" value="Wallet Balance is enough?" style="rhombus;whiteSpace=wrap;html=1;" parent="1" vertex="1">
          <mxGeometry x="40" y="300" width="180" height="50" as="geometry" />
        </mxCell>
        <mxCell id="LWxHSfThP7M6L4Hyh482-21" value="" style="endArrow=classic;html=1;rounded=0;" parent="1" edge="1">
          <mxGeometry width="50" height="50" relative="1" as="geometry">
            <mxPoint x="129.70999999999998" y="350" as="sourcePoint" />
            <mxPoint x="130" y="390" as="targetPoint" />
          </mxGeometry>
        </mxCell>
        <mxCell id="LWxHSfThP7M6L4Hyh482-22" value="" style="endArrow=classic;html=1;rounded=0;exitX=1;exitY=0.5;exitDx=0;exitDy=0;entryX=0.538;entryY=0;entryDx=0;entryDy=0;entryPerimeter=0;" parent="1" source="LWxHSfThP7M6L4Hyh482-20" target="LWxHSfThP7M6L4Hyh482-24" edge="1">
          <mxGeometry width="50" height="50" relative="1" as="geometry">
            <mxPoint x="220" y="330" as="sourcePoint" />
            <mxPoint x="310" y="380" as="targetPoint" />
            <Array as="points">
              <mxPoint x="310" y="325" />
            </Array>
          </mxGeometry>
        </mxCell>
        <mxCell id="LWxHSfThP7M6L4Hyh482-23" value="No" style="text;html=1;align=center;verticalAlign=middle;whiteSpace=wrap;rounded=0;" parent="1" vertex="1">
          <mxGeometry x="220" y="304" width="35" height="20" as="geometry" />
        </mxCell>
        <mxCell id="LWxHSfThP7M6L4Hyh482-24" value="Return Error Message" style="rounded=0;whiteSpace=wrap;html=1;" parent="1" vertex="1">
          <mxGeometry x="240" y="390" width="130" height="50" as="geometry" />
        </mxCell>
        <mxCell id="LWxHSfThP7M6L4Hyh482-25" value="Yes" style="text;html=1;align=center;verticalAlign=middle;whiteSpace=wrap;rounded=0;" parent="1" vertex="1">
          <mxGeometry x="130" y="350" width="35" height="20" as="geometry" />
        </mxCell>
        <mxCell id="LWxHSfThP7M6L4Hyh482-26" value="End" style="rounded=1;whiteSpace=wrap;html=1;arcSize=50;" parent="1" vertex="1">
          <mxGeometry x="70" y="480" width="120" height="40" as="geometry" />
        </mxCell>
        <mxCell id="LWxHSfThP7M6L4Hyh482-27" value="" style="endArrow=classic;html=1;rounded=0;" parent="1" edge="1">
          <mxGeometry width="50" height="50" relative="1" as="geometry">
            <mxPoint x="129.51999999999998" y="440" as="sourcePoint" />
            <mxPoint x="129.81" y="480" as="targetPoint" />
          </mxGeometry>
        </mxCell>
        <mxCell id="LWxHSfThP7M6L4Hyh482-28" value="" style="endArrow=classic;html=1;rounded=0;exitX=0.537;exitY=0.998;exitDx=0;exitDy=0;exitPerimeter=0;" parent="1" source="LWxHSfThP7M6L4Hyh482-24" edge="1">
          <mxGeometry width="50" height="50" relative="1" as="geometry">
            <mxPoint x="270" y="490" as="sourcePoint" />
            <mxPoint x="130" y="460" as="targetPoint" />
            <Array as="points">
              <mxPoint x="310" y="460" />
            </Array>
          </mxGeometry>
        </mxCell>
        <mxCell id="LWxHSfThP7M6L4Hyh482-29" value="Transfer Fund(= tx fee + platform fee) using ETH" style="rounded=0;whiteSpace=wrap;html=1;" parent="1" vertex="1">
          <mxGeometry x="480" y="120" width="180" height="50" as="geometry" />
        </mxCell>
        <mxCell id="LWxHSfThP7M6L4Hyh482-30" value="Input the Token Name, Symbol, Metadata, Wallet Address(must same with above one)" style="shape=document;whiteSpace=wrap;html=1;boundedLbl=1;" parent="1" vertex="1">
          <mxGeometry x="485" y="210" width="170" height="60" as="geometry" />
        </mxCell>
        <mxCell id="LWxHSfThP7M6L4Hyh482-31" value="" style="endArrow=classic;html=1;rounded=0;" parent="1" edge="1">
          <mxGeometry width="50" height="50" relative="1" as="geometry">
            <mxPoint x="569.71" y="170" as="sourcePoint" />
            <mxPoint x="569.8757142857144" y="210" as="targetPoint" />
          </mxGeometry>
        </mxCell>
        <mxCell id="LWxHSfThP7M6L4Hyh482-33" value="" style="endArrow=classic;html=1;rounded=0;" parent="1" edge="1">
          <mxGeometry width="50" height="50" relative="1" as="geometry">
            <mxPoint x="569.71" y="262" as="sourcePoint" />
            <mxPoint x="570" y="302" as="targetPoint" />
          </mxGeometry>
        </mxCell>
        <mxCell id="LWxHSfThP7M6L4Hyh482-34" value="NFT Mint and Transfer to User address" style="rounded=0;whiteSpace=wrap;html=1;" parent="1" vertex="1">
          <mxGeometry x="480" y="480" width="180" height="50" as="geometry" />
        </mxCell>
        <mxCell id="LWxHSfThP7M6L4Hyh482-35" value="Tx fee is enough?" style="rhombus;whiteSpace=wrap;html=1;" parent="1" vertex="1">
          <mxGeometry x="480" y="390" width="180" height="50" as="geometry" />
        </mxCell>
        <mxCell id="LWxHSfThP7M6L4Hyh482-36" value="" style="endArrow=classic;html=1;rounded=0;" parent="1" edge="1">
          <mxGeometry width="50" height="50" relative="1" as="geometry">
            <mxPoint x="569.71" y="440" as="sourcePoint" />
            <mxPoint x="570" y="480" as="targetPoint" />
          </mxGeometry>
        </mxCell>
        <mxCell id="LWxHSfThP7M6L4Hyh482-37" value="" style="endArrow=classic;html=1;rounded=0;exitX=1;exitY=0.5;exitDx=0;exitDy=0;" parent="1" edge="1">
          <mxGeometry width="50" height="50" relative="1" as="geometry">
            <mxPoint x="660" y="325" as="sourcePoint" />
            <mxPoint x="750" y="479" as="targetPoint" />
            <Array as="points">
              <mxPoint x="750" y="325" />
            </Array>
          </mxGeometry>
        </mxCell>
        <mxCell id="LWxHSfThP7M6L4Hyh482-38" value="No" style="text;html=1;align=center;verticalAlign=middle;whiteSpace=wrap;rounded=0;" parent="1" vertex="1">
          <mxGeometry x="660" y="394" width="35" height="20" as="geometry" />
        </mxCell>
        <mxCell id="LWxHSfThP7M6L4Hyh482-39" value="Return Error Message" style="rounded=0;whiteSpace=wrap;html=1;" parent="1" vertex="1">
          <mxGeometry x="680" y="480" width="130" height="50" as="geometry" />
        </mxCell>
        <mxCell id="LWxHSfThP7M6L4Hyh482-40" value="Yes" style="text;html=1;align=center;verticalAlign=middle;whiteSpace=wrap;rounded=0;" parent="1" vertex="1">
          <mxGeometry x="570" y="440" width="35" height="20" as="geometry" />
        </mxCell>
        <mxCell id="LWxHSfThP7M6L4Hyh482-41" value="End" style="rounded=1;whiteSpace=wrap;html=1;arcSize=50;" parent="1" vertex="1">
          <mxGeometry x="510" y="570" width="120" height="40" as="geometry" />
        </mxCell>
        <mxCell id="LWxHSfThP7M6L4Hyh482-42" value="" style="endArrow=classic;html=1;rounded=0;" parent="1" edge="1">
          <mxGeometry width="50" height="50" relative="1" as="geometry">
            <mxPoint x="569.52" y="530" as="sourcePoint" />
            <mxPoint x="569.81" y="570" as="targetPoint" />
          </mxGeometry>
        </mxCell>
        <mxCell id="LWxHSfThP7M6L4Hyh482-43" value="" style="endArrow=classic;html=1;rounded=0;exitX=0.537;exitY=0.998;exitDx=0;exitDy=0;exitPerimeter=0;" parent="1" source="LWxHSfThP7M6L4Hyh482-39" edge="1">
          <mxGeometry width="50" height="50" relative="1" as="geometry">
            <mxPoint x="710" y="580" as="sourcePoint" />
            <mxPoint x="570" y="550" as="targetPoint" />
            <Array as="points">
              <mxPoint x="750" y="550" />
            </Array>
          </mxGeometry>
        </mxCell>
        <mxCell id="LWxHSfThP7M6L4Hyh482-44" value="Wallet Exist?" style="rhombus;whiteSpace=wrap;html=1;" parent="1" vertex="1">
          <mxGeometry x="480" y="300" width="180" height="50" as="geometry" />
        </mxCell>
        <mxCell id="LWxHSfThP7M6L4Hyh482-45" value="" style="endArrow=classic;html=1;rounded=0;" parent="1" edge="1">
          <mxGeometry width="50" height="50" relative="1" as="geometry">
            <mxPoint x="569.52" y="350" as="sourcePoint" />
            <mxPoint x="569.81" y="390" as="targetPoint" />
          </mxGeometry>
        </mxCell>
        <mxCell id="LWxHSfThP7M6L4Hyh482-47" value="No" style="text;html=1;align=center;verticalAlign=middle;whiteSpace=wrap;rounded=0;" parent="1" vertex="1">
          <mxGeometry x="655" y="304" width="35" height="20" as="geometry" />
        </mxCell>
        <mxCell id="LWxHSfThP7M6L4Hyh482-48" value="Yes" style="text;html=1;align=center;verticalAlign=middle;whiteSpace=wrap;rounded=0;" parent="1" vertex="1">
          <mxGeometry x="570" y="350" width="35" height="20" as="geometry" />
        </mxCell>
        <mxCell id="LWxHSfThP7M6L4Hyh482-49" value="" style="endArrow=none;html=1;rounded=0;exitX=1;exitY=0.5;exitDx=0;exitDy=0;" parent="1" source="LWxHSfThP7M6L4Hyh482-35" edge="1">
          <mxGeometry width="50" height="50" relative="1" as="geometry">
            <mxPoint x="680" y="470" as="sourcePoint" />
            <mxPoint x="750" y="415" as="targetPoint" />
          </mxGeometry>
        </mxCell>
        <mxCell id="MF8y315HFKCscMWPIq3S-2" value="&lt;font style=&quot;font-size: 36px;&quot;&gt;Method 1&lt;/font&gt;" style="text;html=1;align=center;verticalAlign=middle;whiteSpace=wrap;rounded=0;" parent="1" vertex="1">
          <mxGeometry x="220" y="60" width="160" height="20" as="geometry" />
        </mxCell>
      </root>
    </mxGraphModel>
  </diagram>
</mxfile>
